<svg id="그룹_1_복사" data-name="그룹 1 복사" xmlns="http://www.w3.org/2000/svg" width="191.969" height="70.781" viewBox="0 0 191.969 70.781">
  <defs>
    <style>
      .cls-1 {
        fill: #fff;
      }

      .cls-1, .cls-2 {
        fill-rule: evenodd;
      }

      .cls-2 {
        fill: none;
        stroke: #ff8000;
        stroke-width: 7.5px;
      }
    </style>
  </defs>
  <path id="THE_MOVIE_복사_2" data-name="THE MOVIE 복사 2" class="cls-1" d="M58.234,35.815a9.72,9.72,0,0,0,3.2-.311,1.815,1.815,0,0,0,1.014-1.938V14.839a2.13,2.13,0,0,0-.858-1.938,6.168,6.168,0,0,0-3.354-.658V11.066H72.039v1.177a11.51,11.51,0,0,0-3.744.45,1.7,1.7,0,0,0-1.248,1.662v8.757H80.892V14.6a1.931,1.931,0,0,0-1.209-1.835,7.875,7.875,0,0,0-3.2-.519V11.066h13.3v1.177a7.833,7.833,0,0,0-2.925.45,1.712,1.712,0,0,0-1.287,1.592v19.28A1.847,1.847,0,0,0,86.819,35.5a9.46,9.46,0,0,0,3,.311v1.108H76.368V35.815a11.29,11.29,0,0,0,3.042-.277,1.71,1.71,0,0,0,1.482-1.7V24.288H67.047v9.069A2.036,2.036,0,0,0,68.178,35.5a13.91,13.91,0,0,0,3.861.311v1.108H58.234V35.815Zm38.436-13.4a11,11,0,0,0-1.4,5.677,11.407,11.407,0,0,0,1.4,5.815,4.788,4.788,0,0,0,4.212,2.631q2.377,0,3.939-2.631a11.288,11.288,0,0,0,1.442-5.815,11.012,11.012,0,0,0-1.442-5.677q-1.561-2.665-3.939-2.665a4.782,4.782,0,0,0-4.212,2.665h0Zm11.7-1.038a9.256,9.256,0,0,1,2.418,6.784,9.206,9.206,0,0,1-2.418,6.75Q105.8,37.58,100.8,37.58q-5.031,0-7.644-2.665a9.388,9.388,0,0,1-2.34-6.75,9.439,9.439,0,0,1,2.34-6.784q2.612-2.7,7.644-2.7,4.99,0,7.565,2.7h0Zm2.052,14.434a10.623,10.623,0,0,0,3.2-.311,1.5,1.5,0,0,0,1.014-1.558V13.869a1.277,1.277,0,0,0-.78-1.281,9.574,9.574,0,0,0-3.431-.415V11.066h15.131a15.177,15.177,0,0,1,9.593,3.185,11.459,11.459,0,0,1,4.563,9.45q0,6.438-4.095,9.934-3.783,3.289-10.022,3.288h-15.17V35.815Zm9.9-.519a4.687,4.687,0,0,0,2.3.519h2.379q4.6,0,6.824-3.184,2.184-3.115,2.184-9.484,0-5.538-2.808-8.307a9.705,9.705,0,0,0-7.214-2.6h-0.975a7.586,7.586,0,0,0-2.886.381,1.509,1.509,0,0,0-.858,1.488V33.738a1.756,1.756,0,0,0,1.053,1.558h0Zm26.581-12.876a11,11,0,0,0-1.4,5.677,11.406,11.406,0,0,0,1.4,5.815,4.788,4.788,0,0,0,4.212,2.631q2.378,0,3.938-2.631A11.279,11.279,0,0,0,156.5,28.1a11,11,0,0,0-1.443-5.677q-1.56-2.665-3.938-2.665a4.782,4.782,0,0,0-4.212,2.665h0Zm11.7-1.038a9.256,9.256,0,0,1,2.418,6.784,9.206,9.206,0,0,1-2.418,6.75q-2.574,2.666-7.565,2.665-5.031,0-7.644-2.665a9.387,9.387,0,0,1-2.34-6.75,9.439,9.439,0,0,1,2.34-6.784q2.613-2.7,7.644-2.7,4.99,0,7.565,2.7h0Zm11.06-5.815a15.194,15.194,0,0,0-2.184,8.446,15.088,15.088,0,0,0,2.184,8.446,8.834,8.834,0,0,0,14.624,0,15.088,15.088,0,0,0,2.184-8.446,15.089,15.089,0,0,0-2.184-8.446,8.879,8.879,0,0,0-14.624,0h0Zm18.524-1.038a12.775,12.775,0,0,1,3.783,9.484A12.76,12.76,0,0,1,188.19,33.6q-3.978,3.912-11.115,3.911-7.176,0-11.231-3.911a12.688,12.688,0,0,1-3.822-9.588,12.7,12.7,0,0,1,3.822-9.484q4.134-4.015,11.231-4.015,7.059,0,11.115,4.015h0ZM62.077,63.165a6.322,6.322,0,0,0,2.041-.21,0.832,0.832,0,0,0,.568-0.863V50.015a0.98,0.98,0,0,0-.421-0.821,1.987,1.987,0,0,0-1.178-.316,5.279,5.279,0,0,0-3.177,1.136,9.3,9.3,0,0,0-2.083,2.209L57.448,52.1l1.494-3.977H72.913l1.536,4.166-0.4.126a9.643,9.643,0,0,0-2.062-2.441,4.531,4.531,0,0,0-2.9-1.136,2.553,2.553,0,0,0-1.325.337,0.979,0.979,0,0,0-.547.842V62.092a0.856,0.856,0,0,0,.61.863,6.077,6.077,0,0,0,1.936.21v0.673h-7.68V63.165Zm13.546,0a4.688,4.688,0,0,0,1.725-.189A1.135,1.135,0,0,0,77.9,61.8V50.414a1.363,1.363,0,0,0-.463-1.178,3.021,3.021,0,0,0-1.809-.4V48.121h7.448v0.715a5.558,5.558,0,0,0-2.02.273,1.027,1.027,0,0,0-.673,1.01v5.323h7.469V50.267a1.187,1.187,0,0,0-.652-1.115,3.825,3.825,0,0,0-1.725-.316V48.121h7.175v0.715a3.8,3.8,0,0,0-1.578.273,1.026,1.026,0,0,0-.694.968V61.8a1.132,1.132,0,0,0,.673,1.178,4.563,4.563,0,0,0,1.62.189v0.673H85.406V63.165A5.433,5.433,0,0,0,87.048,63a1.011,1.011,0,0,0,.8-1.031V56.158H80.378v5.513a1.274,1.274,0,0,0,.61,1.3,6.7,6.7,0,0,0,2.083.189v0.673H75.623V63.165Zm18.006,0a3.562,3.562,0,0,0,1.557-.252,0.992,0.992,0,0,0,.568-0.947V50.078a1.083,1.083,0,0,0-.379-0.968,3.726,3.726,0,0,0-1.746-.273V48.121h12.624l1.473,3.745-0.337.21a8.019,8.019,0,0,0-2.461-2.209,7.743,7.743,0,0,0-3.935-1.031,6.28,6.28,0,0,0-1.978.21,1.2,1.2,0,0,0-.757,1.22v5.2h2.693a2.156,2.156,0,0,0,1.746-.61,4.493,4.493,0,0,0,.695-2.209h0.673v6.438h-0.716a4.75,4.75,0,0,0-.61-2.209,2.017,2.017,0,0,0-1.746-.694H98.258v5.786a0.985,0.985,0,0,0,.5.947,3.893,3.893,0,0,0,1.662.252h1.41a5.9,5.9,0,0,0,2.84-.778,9.635,9.635,0,0,0,3.051-2.609l0.463,0.21-1.747,3.85H93.629V63.165Zm21.5,0a3.32,3.32,0,0,0,1.346-.189,0.874,0.874,0,0,0,.463-0.863V49.867a0.969,0.969,0,0,0-.337-0.884,3.073,3.073,0,0,0-1.472-.231V48.121h4.965L124.4,59.967l4.524-11.846h4.839v0.715a4.04,4.04,0,0,0-1.388.147,0.758,0.758,0,0,0-.316.736V61.9a1.256,1.256,0,0,0,.316,1.01,2.552,2.552,0,0,0,1.388.252v0.673H127.5V63.165a3.7,3.7,0,0,0,1.7-.252,1.137,1.137,0,0,0,.357-1.01V48.836h-0.084l-5.828,15.191h-0.379l-5.533-15.191h-0.106V62.113a0.868,0.868,0,0,0,.484.863,4.125,4.125,0,0,0,1.536.189v0.673h-4.523V63.165Zm24.023-12.309a10.153,10.153,0,0,0-1.178,5.134,10.08,10.08,0,0,0,1.178,5.134,4.48,4.48,0,0,0,7.89,0,10.07,10.07,0,0,0,1.179-5.134,10.071,10.071,0,0,0-1.179-5.134,4.5,4.5,0,0,0-7.89,0h0Zm10-.631a8.3,8.3,0,0,1,2.04,5.765,8.3,8.3,0,0,1-2.04,5.828,7.666,7.666,0,0,1-6,2.377,7.826,7.826,0,0,1-6.06-2.377,8.247,8.247,0,0,1-2.061-5.828,8.254,8.254,0,0,1,2.061-5.765,7.8,7.8,0,0,1,6.06-2.441,7.646,7.646,0,0,1,6,2.441h0Zm18.7-2.1v0.715a3.229,3.229,0,0,0-1.473.253,2.3,2.3,0,0,0-.862,1.157l-5.281,13.929h-0.821l-5.386-14.349A1.594,1.594,0,0,0,153.324,49a3.054,3.054,0,0,0-1.2-.168V48.121h6.712v0.715a6.733,6.733,0,0,0-1.894.168,0.464,0.464,0,0,0-.294.715l4.081,11,4.061-10.688a0.8,0.8,0,0,0-.147-0.926,4.323,4.323,0,0,0-1.957-.273V48.121h5.155Zm8.16,0v0.715a4.9,4.9,0,0,0-1.873.232,1.022,1.022,0,0,0-.463.989V61.9a1.064,1.064,0,0,0,.5,1.031,4.73,4.73,0,0,0,1.831.231v0.673h-7.175V63.165a4.749,4.749,0,0,0,1.809-.231,1.043,1.043,0,0,0,.547-1.031V50.057a1.052,1.052,0,0,0-.4-0.989,5.048,5.048,0,0,0-1.936-.232V48.121H176Zm0.9,15.044a3.563,3.563,0,0,0,1.557-.252,0.992,0.992,0,0,0,.568-0.947V50.078a1.082,1.082,0,0,0-.379-0.968,3.722,3.722,0,0,0-1.746-.273V48.121h12.624L191,51.866l-0.337.21a8.019,8.019,0,0,0-2.461-2.209,7.743,7.743,0,0,0-3.935-1.031,6.283,6.283,0,0,0-1.978.21,1.2,1.2,0,0,0-.757,1.22v5.2h2.693a2.155,2.155,0,0,0,1.746-.61,4.493,4.493,0,0,0,.695-2.209h0.673v6.438h-0.715a4.76,4.76,0,0,0-.611-2.209,2.016,2.016,0,0,0-1.746-.694h-2.735v5.786a0.985,0.985,0,0,0,.5.947,3.889,3.889,0,0,0,1.662.252h1.41a5.9,5.9,0,0,0,2.84-.778A9.635,9.635,0,0,0,191,59.777l0.463,0.21-1.746,3.85H176.9V63.165Z" transform="translate(0 -2.25)"/>
  <path id="사각형_1_복사" data-name="사각형 1 복사" class="cls-2" d="M2,6H46.372V69.267H2V6Z" transform="translate(0 -2.25)"/>
</svg>
