<svg xmlns="http://www.w3.org/2000/svg" width="184.281" height="22.563" viewBox="0 0 184.281 22.563">
  <defs>
    <style>
      .cls-1 {
        fill: #fff;
        fill-rule: evenodd;
      }
    </style>
  </defs>
  <path id="THE_MOVIE_복사" data-name="THE MOVIE 복사" class="cls-1" d="M81.609,84.605a8.7,8.7,0,0,0,2.806-.289A1.145,1.145,0,0,0,85.2,83.13V66.523a1.348,1.348,0,0,0-.579-1.128A2.732,2.732,0,0,0,83,64.96a7.259,7.259,0,0,0-4.369,1.562,12.78,12.78,0,0,0-2.864,3.038l-0.521-.174L77.3,63.919H96.509l2.112,5.729-0.55.174a13.263,13.263,0,0,0-2.835-3.356A6.231,6.231,0,0,0,91.243,64.9a3.511,3.511,0,0,0-1.823.463,1.346,1.346,0,0,0-.752,1.157V83.13a1.178,1.178,0,0,0,.839,1.186,8.358,8.358,0,0,0,2.662.289v0.926H81.609V84.605Zm18.626,0a6.451,6.451,0,0,0,2.373-.26,1.561,1.561,0,0,0,.752-1.62V67.072a1.875,1.875,0,0,0-.637-1.62,4.153,4.153,0,0,0-2.488-.55V63.919h10.242V64.9a7.638,7.638,0,0,0-2.777.376,1.412,1.412,0,0,0-.926,1.389v7.32h10.271V66.87a1.634,1.634,0,0,0-.9-1.533,5.264,5.264,0,0,0-2.373-.434V63.919h9.866V64.9a5.223,5.223,0,0,0-2.17.376,1.412,1.412,0,0,0-.955,1.331V82.724a1.558,1.558,0,0,0,.926,1.62,6.278,6.278,0,0,0,2.228.26v0.926h-9.982V84.605a7.474,7.474,0,0,0,2.257-.231,1.39,1.39,0,0,0,1.1-1.418V74.971H106.774v7.58a1.751,1.751,0,0,0,.839,1.794,9.2,9.2,0,0,0,2.864.26v0.926H100.235V84.605Zm24.76,0a4.9,4.9,0,0,0,2.141-.347,1.364,1.364,0,0,0,.781-1.3V66.61a1.49,1.49,0,0,0-.521-1.331A5.121,5.121,0,0,0,125,64.9V63.919h17.359l2.025,5.15-0.463.289a11.015,11.015,0,0,0-3.385-3.038,10.642,10.642,0,0,0-5.41-1.418,8.638,8.638,0,0,0-2.72.289,1.649,1.649,0,0,0-1.041,1.678v7.146h3.7a2.968,2.968,0,0,0,2.4-.839,6.184,6.184,0,0,0,.954-3.038h0.926v8.853h-0.984a6.539,6.539,0,0,0-.839-3.038,2.773,2.773,0,0,0-2.4-.955H131.36v7.956a1.354,1.354,0,0,0,.694,1.3,5.355,5.355,0,0,0,2.286.347h1.938a8.12,8.12,0,0,0,3.906-1.071,13.244,13.244,0,0,0,4.195-3.587l0.637,0.289-2.4,5.294H125V84.605Zm29.557,0a4.565,4.565,0,0,0,1.851-.26,1.2,1.2,0,0,0,.637-1.186V66.32a1.336,1.336,0,0,0-.463-1.215,4.231,4.231,0,0,0-2.025-.318V63.919h6.827l5.931,16.289,6.221-16.289h6.654V64.9a5.557,5.557,0,0,0-1.909.2,1.043,1.043,0,0,0-.434,1.013V82.869a1.727,1.727,0,0,0,.434,1.389,3.507,3.507,0,0,0,1.909.347v0.926h-8.622V84.605a5.084,5.084,0,0,0,2.344-.347,1.561,1.561,0,0,0,.492-1.389V64.9h-0.116l-8.014,20.889h-0.521L158.139,64.9h-0.145V83.158a1.192,1.192,0,0,0,.666,1.186,5.662,5.662,0,0,0,2.112.26v0.926h-6.22V84.605ZM187.586,67.68a13.945,13.945,0,0,0-1.62,7.059,13.846,13.846,0,0,0,1.62,7.059,6.161,6.161,0,0,0,10.849,0,13.856,13.856,0,0,0,1.62-7.059,13.857,13.857,0,0,0-1.62-7.059,6.187,6.187,0,0,0-10.849,0h0Zm13.742-.868a11.417,11.417,0,0,1,2.807,7.927,11.407,11.407,0,0,1-2.807,8.014q-2.951,3.27-8.245,3.269a10.761,10.761,0,0,1-8.333-3.269,11.338,11.338,0,0,1-2.835-8.014,11.348,11.348,0,0,1,2.835-7.927,10.73,10.73,0,0,1,8.333-3.356,10.511,10.511,0,0,1,8.245,3.356h0Zm25.715-2.893V64.9a4.433,4.433,0,0,0-2.025.347,3.163,3.163,0,0,0-1.187,1.591L216.57,85.994h-1.129l-7.406-19.731a2.189,2.189,0,0,0-.955-1.128,4.2,4.2,0,0,0-1.649-.231V63.919h9.229V64.9a9.247,9.247,0,0,0-2.6.231,0.639,0.639,0,0,0-.405.984l5.613,15.131,5.584-14.7a1.106,1.106,0,0,0-.2-1.273,5.941,5.941,0,0,0-2.69-.376V63.919h7.088Zm11.22,0V64.9a6.732,6.732,0,0,0-2.575.318,1.406,1.406,0,0,0-.637,1.36V82.869a1.466,1.466,0,0,0,.694,1.418,6.51,6.51,0,0,0,2.518.318v0.926H228.4V84.605a6.528,6.528,0,0,0,2.488-.318,1.435,1.435,0,0,0,.752-1.418V66.581a1.445,1.445,0,0,0-.55-1.36,6.936,6.936,0,0,0-2.661-.318V63.919h9.837ZM239.5,84.605a4.9,4.9,0,0,0,2.141-.347,1.364,1.364,0,0,0,.781-1.3V66.61a1.49,1.49,0,0,0-.521-1.331,5.121,5.121,0,0,0-2.4-.376V63.919H256.86l2.025,5.15-0.463.289a11.015,11.015,0,0,0-3.385-3.038,10.642,10.642,0,0,0-5.41-1.418,8.638,8.638,0,0,0-2.72.289,1.649,1.649,0,0,0-1.041,1.678v7.146h3.7a2.966,2.966,0,0,0,2.4-.839,6.172,6.172,0,0,0,.955-3.038h0.926v8.853h-0.984a6.539,6.539,0,0,0-.839-3.038,2.774,2.774,0,0,0-2.4-.955h-3.761v7.956a1.354,1.354,0,0,0,.694,1.3,5.352,5.352,0,0,0,2.286.347h1.938a8.12,8.12,0,0,0,3.906-1.071,13.244,13.244,0,0,0,4.195-3.587l0.637,0.289-2.4,5.294H239.5V84.605Z" transform="translate(-75.25 -63.469)"/>
</svg>
