<svg id="그룹_2_복사" data-name="그룹 2 복사" xmlns="http://www.w3.org/2000/svg" width="261.969" height="94.5" viewBox="0 0 261.969 94.5">
  <defs>
    <style>
      .cls-1 {
        fill-rule: evenodd;
      }

      .cls-2 {
        fill: none;
        stroke: #ff8000;
        stroke-width: 7.5px;
      }
    </style>
  </defs>
  <path id="HODOO" class="cls-1" d="M73.989,9.406V9.679a2.622,2.622,0,0,1,1.611,1,5.169,5.169,0,0,1,.638,3.042v7.011a14.125,14.125,0,0,1-.168,2.646,2.834,2.834,0,0,1-.7,1.354,2.8,2.8,0,0,1-1.376.791V25.8l3.592-.182V9.588q-2.551-.061-3.592-0.182h0ZM94.968,25.8V25.526Q92.7,25.085,92.7,21.678V14.8l0.05-1.445q0.084-3.133,2.215-3.68V9.406q-1.83.182-3.642,0.182V25.617q0.453,0,3.642.182h0ZM86.392,9.406V9.679a2.7,2.7,0,0,1,1.779,1.232,5.936,5.936,0,0,1,.554,2.874v2.9H80.2V14.15a7.274,7.274,0,0,1,.5-3.209,2.692,2.692,0,0,1,1.829-1.262V9.406q-2.232.182-3.709,0.182V25.617q1.628,0.03,3.709.182V25.526a3.122,3.122,0,0,1-1.662-.958,4.475,4.475,0,0,1-.671-2.889v-3.7h8.526v3.209a5.762,5.762,0,0,1-.654,3.285,2.7,2.7,0,0,1-1.678,1.049V25.8q2.954-.168,3.692-0.182V9.588a36.841,36.841,0,0,1-3.692-.182h0ZM114,17.435q0-4.531-3.457-6.4a9.648,9.648,0,0,1,1.813,6.235q0,4.532-1.83,6.782A7.229,7.229,0,0,0,114,17.435h0Zm-20.476.046a6.977,6.977,0,0,0,3.39,6.478,11.24,11.24,0,0,1-1.762-6.326A11.111,11.111,0,0,1,97,11.018q-3.474,1.886-3.474,6.463h0Zm10.255,7.269q-5.79,0-5.79-7.026,0-7.467,5.723-7.467,5.841,0,5.841,7.284,0,7.208-5.774,7.208h0Zm5.371-13.565a7.02,7.02,0,0,0-5.438-2.175,6.8,6.8,0,0,0-5.337,2.175,9.262,9.262,0,0,0-1.947,6.326,9.366,9.366,0,0,0,1.913,6.235,6.683,6.683,0,0,0,5.4,2.266,7.7,7.7,0,0,0,3.843-.928,6.123,6.123,0,0,0,2.6-2.829,10.738,10.738,0,0,0,.94-4.73q0-4.182-1.98-6.342h0Zm24.037,6.509a7.2,7.2,0,0,0-.973-3.741,8.043,8.043,0,0,0-2.887-2.783q2.283,1.916,2.283,6.57,0,4.76-2.786,6.691,4.363-2.357,4.363-6.737h0ZM112.464,9.406V9.679a2.875,2.875,0,0,1,1.829,1.217,5.763,5.763,0,0,1,.52,2.813V19.99a10.669,10.669,0,0,1-.52,4.167,2.644,2.644,0,0,1-1.829,1.369V25.8q2.55-.183,3.742-0.182V9.588q-1.56-.03-3.742-0.182h0ZM121.9,10.5a6.864,6.864,0,0,1,5.237,1.886,7.415,7.415,0,0,1,1.779,5.292,7.151,7.151,0,0,1-1.8,5.277,6.6,6.6,0,0,1-4.884,1.779,10.886,10.886,0,0,1-2.954-.365,17.537,17.537,0,0,1-.487-4.866V15.793A21.885,21.885,0,0,1,119.06,11a6.62,6.62,0,0,1,2.836-.5h0Zm-3.139,15.132q2.115,0.167,3.794.167a7.644,7.644,0,0,0,5.723-2.159,8.414,8.414,0,0,0,2.1-6.113,9.3,9.3,0,0,0-.873-4.288,6.957,6.957,0,0,0-2.652-2.783,8.313,8.313,0,0,0-4.3-1.049q-0.521,0-1.914.076-0.922.061-3.239,0.106V25.617h1.024a2.306,2.306,0,0,1,.335.015h0Zm33.487-8.2q0-4.531-3.457-6.4a9.648,9.648,0,0,1,1.812,6.235q0,4.532-1.829,6.782a7.229,7.229,0,0,0,3.474-6.615h0Zm-20.476.046a6.977,6.977,0,0,0,3.39,6.478,11.247,11.247,0,0,1-1.762-6.326,11.111,11.111,0,0,1,1.846-6.615q-3.474,1.886-3.474,6.463h0Zm10.255,7.269q-5.79,0-5.79-7.026,0-7.467,5.723-7.467,5.841,0,5.84,7.284,0,7.208-5.773,7.208h0Zm5.371-13.565a7.021,7.021,0,0,0-5.438-2.175,6.8,6.8,0,0,0-5.337,2.175,9.258,9.258,0,0,0-1.947,6.326,9.364,9.364,0,0,0,1.913,6.235,6.683,6.683,0,0,0,5.4,2.266,7.7,7.7,0,0,0,3.844-.928,6.123,6.123,0,0,0,2.6-2.829,10.738,10.738,0,0,0,.94-4.73q0-4.182-1.98-6.342h0Zm23.618,6.25q0-4.531-3.458-6.4a9.642,9.642,0,0,1,1.813,6.235q0,4.532-1.83,6.782a7.23,7.23,0,0,0,3.475-6.615h0Zm-20.476.046a6.977,6.977,0,0,0,3.39,6.478,11.239,11.239,0,0,1-1.762-6.326,11.111,11.111,0,0,1,1.846-6.615q-3.474,1.886-3.474,6.463h0ZM160.79,24.75q-5.79,0-5.79-7.026,0-7.467,5.723-7.467,5.841,0,5.841,7.284,0,7.208-5.774,7.208h0Zm5.371-13.565a7.02,7.02,0,0,0-5.438-2.175,6.8,6.8,0,0,0-5.337,2.175,9.263,9.263,0,0,0-1.947,6.326,9.369,9.369,0,0,0,1.913,6.235,6.684,6.684,0,0,0,5.405,2.266,7.7,7.7,0,0,0,3.843-.928,6.13,6.13,0,0,0,2.6-2.829,10.752,10.752,0,0,0,.94-4.73q0-4.182-1.981-6.342h0Z" transform="translate(0 -2.25)"/>
  <path id="THE_MOVIE" data-name="THE MOVIE" class="cls-1" d="M73.075,38.91h1.37q1.4-7.272,5.373-7.273a1.561,1.561,0,0,1,1.051.3,1.165,1.165,0,0,1,.335.919V50.574a1.132,1.132,0,0,1-.327.849,1.216,1.216,0,0,1-.888.319H77.5V53.19H89.816V51.742H87.2a1.037,1.037,0,0,1-.771-0.327,1.153,1.153,0,0,1-.319-0.841V32.758a1.052,1.052,0,0,1,.327-0.833,1.529,1.529,0,0,1,1.028-.288A4.024,4.024,0,0,1,89.7,32.3a5.573,5.573,0,0,1,1.814,2.235,16.315,16.315,0,0,1,1.293,4.376h1.417l-0.514-8.752H73.573Zm22.092-7.3h1.339a1.653,1.653,0,0,1,1.152.335,1.52,1.52,0,0,1,.358,1.145V50.449a1.463,1.463,0,0,1-.273.989,1.107,1.107,0,0,1-.864.3H95.166V53.19h10.668V51.742h-1.853a0.974,0.974,0,0,1-.763-0.311,1.437,1.437,0,0,1-.281-0.981V42.164h8.784v8.285a1.4,1.4,0,0,1-.289,1,1.3,1.3,0,0,1-.957.3h-1.62V53.19h10.683V51.742h-1.6a1.338,1.338,0,0,1-.989-0.35,1.526,1.526,0,0,1-.35-1.113v-17.4a1.241,1.241,0,0,1,.343-0.966,1.727,1.727,0,0,1,1.167-.312h1.433V30.158H108.855v1.448h1.339a1.7,1.7,0,0,1,1.176.327,1.535,1.535,0,0,1,.351,1.152v7.164h-8.784V32.7a1.019,1.019,0,0,1,.327-0.794,1.45,1.45,0,0,1,1-.3h1.573V30.158H95.166v1.448Zm25.534,0h1.822a2.366,2.366,0,0,1,1.316.265,0.95,0.95,0,0,1,.366.825V50.418a1.289,1.289,0,0,1-.366.965,1.465,1.465,0,0,1-1.067.358H120.7V53.19h20.915l0.342-8.768h-1.4a9.115,9.115,0,0,1-2.243,5.5,6.272,6.272,0,0,1-4.656,1.822h-2.772a2.519,2.519,0,0,1-1.433-.343,0.909,0.909,0,0,1-.327-0.794V42.087h0.888a4.068,4.068,0,0,1,3.1,1.09,5.906,5.906,0,0,1,1.168,3.753h1.4V36.216h-1.4a5.447,5.447,0,0,1-1.207,3.41,3.8,3.8,0,0,1-2.873,1.059h-1.075V32.7a1.013,1.013,0,0,1,.327-0.8,1.586,1.586,0,0,1,1.059-.288h3.146a6.567,6.567,0,0,1,3.075.623,4.743,4.743,0,0,1,1.9,1.877,13.109,13.109,0,0,1,1.207,4.1h1.371l-0.452-8.051H120.7v1.448Zm30.059,0h1.822a1.869,1.869,0,0,1,1.261.312,1.771,1.771,0,0,1,.327,1.261V48.067a3.47,3.47,0,0,1-3.41,3.675V53.19h8.55V51.742a4.258,4.258,0,0,1-2.663-1.113,3.228,3.228,0,0,1-.919-2.375V31.419l7.3,21.771H164.4l7.318-21.584V50.449a1.339,1.339,0,0,1-.319.95,1.206,1.206,0,0,1-.927.343h-2.211V53.19H179.99V51.742h-1.831a1.978,1.978,0,0,1-1.267-.374,1.12,1.12,0,0,1-.313-0.919v-17.6a1.313,1.313,0,0,1,.289-0.966,1.522,1.522,0,0,1,1.056-.28h2.066V30.158h-9.516l-5.209,15.6-5.23-15.6h-9.276v1.448Zm33.585,1.384A11.833,11.833,0,0,0,181,41.643a12.269,12.269,0,0,0,1.526,6.2,11.424,11.424,0,0,0,10.138,5.813,11.292,11.292,0,0,0,8.4-3.455,11.84,11.84,0,0,0,3.388-8.637,12.239,12.239,0,0,0-1.534-6.124,11.227,11.227,0,0,0-4.283-4.288,11.885,11.885,0,0,0-6-1.572A11.15,11.15,0,0,0,184.344,32.99Zm11.664-.894a6.125,6.125,0,0,1,2.133,3.1,20.259,20.259,0,0,1,.717,6.217q0,5.914-1.666,8.3a5.176,5.176,0,0,1-4.454,2.389,5.478,5.478,0,0,1-3.3-1.027,6.305,6.305,0,0,1-2.157-3.167,20.371,20.371,0,0,1-.739-6.295,19.314,19.314,0,0,1,.8-6.225,6.8,6.8,0,0,1,2.164-3.291,5.22,5.22,0,0,1,3.216-1.019A5.482,5.482,0,0,1,196.008,32.1Zm8.045-.49h0.483a3.432,3.432,0,0,1,1.76.343,2.84,2.84,0,0,1,.965,1.386l8.431,20.354h1.859l7.837-19.373a5.708,5.708,0,0,1,1.3-2.118,2.27,2.27,0,0,1,1.534-.592h0.67V30.158h-8.908v1.448h1.044a2.61,2.61,0,0,1,1.744.5,1.831,1.831,0,0,1,.576,1.464,6.089,6.089,0,0,1-.474,2.227l-4.735,11.913-5.78-13.953a3.983,3.983,0,0,1-.348-1.246,0.743,0.743,0,0,1,.413-0.654,3.691,3.691,0,0,1,1.674-.249h1.23V30.158H204.053v1.448Zm24.148,0h2.055a1.622,1.622,0,0,1,1.1.312,1.226,1.226,0,0,1,.35.966V50.512a1.117,1.117,0,0,1-.381.919,2.118,2.118,0,0,1-1.316.311H228.2V53.19h11.8V51.742h-1.9a1.885,1.885,0,0,1-1.215-.343,1.08,1.08,0,0,1-.327-0.888V32.68a1.008,1.008,0,0,1,.312-0.8,1.492,1.492,0,0,1,1-.273h2.134V30.158H228.2v1.448Zm12.5,0h1.822a2.364,2.364,0,0,1,1.316.265,0.95,0.95,0,0,1,.366.825V50.418a1.289,1.289,0,0,1-.366.965,1.462,1.462,0,0,1-1.066.358H240.7V53.19h20.915l0.343-8.768h-1.4a9.114,9.114,0,0,1-2.242,5.5,6.276,6.276,0,0,1-4.657,1.822h-2.772a2.521,2.521,0,0,1-1.433-.343,0.909,0.909,0,0,1-.327-0.794V42.087h0.888a4.065,4.065,0,0,1,3.1,1.09,5.9,5.9,0,0,1,1.168,3.753h1.4V36.216h-1.4a5.442,5.442,0,0,1-1.207,3.41,3.8,3.8,0,0,1-2.873,1.059h-1.075V32.7a1.013,1.013,0,0,1,.327-0.8,1.587,1.587,0,0,1,1.059-.288h3.146a6.569,6.569,0,0,1,3.076.623,4.749,4.749,0,0,1,1.9,1.877,13.109,13.109,0,0,1,1.207,4.1h1.37l-0.452-8.051H240.7v1.448Z" transform="translate(0 -2.25)"/>
  <rect id="사각형_1_복사_2" data-name="사각형 1 복사 2" class="cls-2" x="2" y="3.75" width="61" height="87"/>
</svg>
