<svg id="그룹_2_복사_2" data-name="그룹 2 복사 2" xmlns="http://www.w3.org/2000/svg" width="154.688" height="58" viewBox="0 0 154.688 58">
  <defs>
    <style>
      .cls-1 {
        fill: #fff;
      }

      .cls-1, .cls-2 {
        fill-rule: evenodd;
      }

      .cls-2 {
        fill: none;
        stroke: #ff8000;
        stroke-width: 7.5px;
      }
    </style>
  </defs>
  <path id="HODOO" class="cls-1" d="M98.31,26.22v0.159a1.522,1.522,0,0,1,.936.583,3,3,0,0,1,.37,1.766V32.8a8.2,8.2,0,0,1-.1,1.536,1.645,1.645,0,0,1-.409.786,1.623,1.623,0,0,1-.8.459v0.159l2.086-.106V26.326q-1.482-.035-2.086-0.106h0Zm12.182,9.519V35.58q-1.316-.256-1.316-2.234V29.355l0.029-.839q0.05-1.819,1.287-2.137V26.22q-1.062.106-2.115,0.106v9.307q0.263,0,2.115.106h0Zm-4.98-9.519v0.159a1.567,1.567,0,0,1,1.033.715,3.451,3.451,0,0,1,.322,1.669v1.687h-4.951V28.975a4.223,4.223,0,0,1,.292-1.863,1.563,1.563,0,0,1,1.063-.733V26.22q-1.3.106-2.154,0.106v9.307q0.945,0.018,2.154.106V35.58a1.811,1.811,0,0,1-.965-0.556,2.6,2.6,0,0,1-.39-1.678V31.2h4.951v1.863a3.339,3.339,0,0,1-.381,1.907,1.569,1.569,0,0,1-.974.609v0.159q1.715-.1,2.144-0.106V26.326a21.406,21.406,0,0,1-2.144-.106h0Zm16.033,4.662a3.876,3.876,0,0,0-2.008-3.717,5.6,5.6,0,0,1,1.053,3.62,6.155,6.155,0,0,1-1.063,3.938,4.2,4.2,0,0,0,2.018-3.841h0Zm-11.889.026a4.051,4.051,0,0,0,1.968,3.762A6.528,6.528,0,0,1,110.6,31a6.451,6.451,0,0,1,1.072-3.841,3.913,3.913,0,0,0-2.017,3.753h0Zm5.954,4.221q-3.363,0-3.362-4.079,0-4.335,3.323-4.336,3.391,0,3.391,4.23,0,4.185-3.352,4.185h0Zm3.118-7.876a4.074,4.074,0,0,0-3.157-1.263,3.946,3.946,0,0,0-3.1,1.263,5.377,5.377,0,0,0-1.131,3.673,5.442,5.442,0,0,0,1.111,3.62,3.882,3.882,0,0,0,3.138,1.316,4.47,4.47,0,0,0,2.232-.539,3.553,3.553,0,0,0,1.51-1.642,6.235,6.235,0,0,0,.546-2.746,5.27,5.27,0,0,0-1.15-3.682h0Zm13.957,3.779a4.177,4.177,0,0,0-.565-2.172,4.678,4.678,0,0,0-1.676-1.616q1.325,1.113,1.325,3.815,0,2.764-1.618,3.885a4.266,4.266,0,0,0,2.534-3.912h0ZM120.65,26.22v0.159a1.666,1.666,0,0,1,1.062.706,3.34,3.34,0,0,1,.3,1.633v3.647a6.185,6.185,0,0,1-.3,2.419,1.536,1.536,0,0,1-1.062.795v0.159q1.48-.106,2.173-0.106V26.326q-0.906-.018-2.173-0.106h0Zm5.477,0.636a3.982,3.982,0,0,1,3.04,1.095,4.3,4.3,0,0,1,1.033,3.073,4.148,4.148,0,0,1-1.043,3.064,3.83,3.83,0,0,1-2.835,1.033,6.315,6.315,0,0,1-1.715-.212,10.169,10.169,0,0,1-.283-2.826V29.929a12.751,12.751,0,0,1,.156-2.782,3.844,3.844,0,0,1,1.647-.291h0ZM124.3,35.642q1.228,0.1,2.2.1a4.438,4.438,0,0,0,3.323-1.254,4.884,4.884,0,0,0,1.218-3.55,5.4,5.4,0,0,0-.507-2.49A4.037,4.037,0,0,0,129,26.829a4.831,4.831,0,0,0-2.5-.609q-0.3,0-1.111.044-0.537.035-1.881,0.062v9.307h0.595a1.316,1.316,0,0,1,.194.009h0Zm19.444-4.759a3.874,3.874,0,0,0-2.008-3.717,5.6,5.6,0,0,1,1.053,3.62,6.155,6.155,0,0,1-1.062,3.938,4.2,4.2,0,0,0,2.017-3.841h0Zm-11.889.026a4.051,4.051,0,0,0,1.968,3.762A6.528,6.528,0,0,1,132.8,31a6.451,6.451,0,0,1,1.072-3.841,3.913,3.913,0,0,0-2.017,3.753h0Zm5.954,4.221q-3.361,0-3.362-4.079,0-4.335,3.323-4.336,3.392,0,3.391,4.23,0,4.185-3.352,4.185h0Zm3.119-7.876a4.078,4.078,0,0,0-3.158-1.263,3.949,3.949,0,0,0-3.1,1.263,5.376,5.376,0,0,0-1.13,3.673,5.436,5.436,0,0,0,1.111,3.62,3.879,3.879,0,0,0,3.138,1.316,4.466,4.466,0,0,0,2.231-.539,3.56,3.56,0,0,0,1.511-1.642,6.25,6.25,0,0,0,.545-2.746,5.274,5.274,0,0,0-1.149-3.682h0Zm13.713,3.629a3.874,3.874,0,0,0-2.008-3.717,5.6,5.6,0,0,1,1.053,3.62,6.155,6.155,0,0,1-1.062,3.938,4.2,4.2,0,0,0,2.017-3.841h0Zm-11.889.026a4.051,4.051,0,0,0,1.968,3.762A6.528,6.528,0,0,1,143.7,31a6.451,6.451,0,0,1,1.072-3.841,3.913,3.913,0,0,0-2.017,3.753h0Zm5.954,4.221q-3.362,0-3.362-4.079,0-4.335,3.323-4.336,3.392,0,3.391,4.23,0,4.185-3.352,4.185h0Zm3.118-7.876a4.074,4.074,0,0,0-3.157-1.263,3.949,3.949,0,0,0-3.1,1.263,5.376,5.376,0,0,0-1.13,3.673,5.436,5.436,0,0,0,1.111,3.62,3.879,3.879,0,0,0,3.138,1.316,4.466,4.466,0,0,0,2.231-.539,3.56,3.56,0,0,0,1.511-1.642,6.25,6.25,0,0,0,.545-2.746,5.27,5.27,0,0,0-1.15-3.682h0Z" transform="translate(-52.75 -20.5)"/>
  <path id="THE_MOVIE" data-name="THE MOVIE" class="cls-1" d="M97.779,43.351h0.8q0.814-4.223,3.12-4.223a0.906,0.906,0,0,1,.61.172,0.675,0.675,0,0,1,.194.533v10.29a0.659,0.659,0,0,1-.189.493,0.708,0.708,0,0,1-.516.185h-1.447v0.841H107.5V50.8h-1.519a0.6,0.6,0,0,1-.448-0.19,0.668,0.668,0,0,1-.185-0.488V39.779a0.609,0.609,0,0,1,.19-0.484,0.885,0.885,0,0,1,.6-0.167,2.337,2.337,0,0,1,1.3.384,3.23,3.23,0,0,1,1.053,1.3,9.451,9.451,0,0,1,.751,2.541h0.823l-0.3-5.082H98.069Zm12.828-4.241h0.777a0.957,0.957,0,0,1,.669.194,0.881,0.881,0,0,1,.208.665V50.051a0.846,0.846,0,0,1-.158.574,0.642,0.642,0,0,1-.5.176h-0.994v0.841H116.8V50.8h-1.076a0.568,0.568,0,0,1-.444-0.181,0.838,0.838,0,0,1-.162-0.57v-4.81h5.1v4.81a0.812,0.812,0,0,1-.168.579,0.753,0.753,0,0,1-.556.172h-0.94v0.841h6.2V50.8h-0.932a0.777,0.777,0,0,1-.574-0.2,0.887,0.887,0,0,1-.2-0.646v-10.1a0.721,0.721,0,0,1,.2-0.561,1,1,0,0,1,.678-0.181h0.832V38.269h-6.2V39.11h0.777a0.989,0.989,0,0,1,.683.19,0.891,0.891,0,0,1,.2.669v4.159h-5.1V39.743a0.59,0.59,0,0,1,.19-0.461,0.838,0.838,0,0,1,.578-0.172H116.8V38.269h-6.194V39.11Zm14.825,0h1.058a1.371,1.371,0,0,1,.764.154,0.551,0.551,0,0,1,.213.479v10.29a0.747,0.747,0,0,1-.213.561,0.848,0.848,0,0,1-.619.208h-1.2v0.841h12.144l0.2-5.091h-0.814a5.293,5.293,0,0,1-1.3,3.192,3.641,3.641,0,0,1-2.7,1.058h-1.609a1.461,1.461,0,0,1-.832-0.2,0.527,0.527,0,0,1-.19-0.461V45.2h0.516a2.361,2.361,0,0,1,1.8.633,3.424,3.424,0,0,1,.678,2.179h0.814V41.787h-0.814a3.158,3.158,0,0,1-.7,1.98,2.208,2.208,0,0,1-1.668.615h-0.624V39.743a0.587,0.587,0,0,1,.19-0.466,0.921,0.921,0,0,1,.615-0.167h1.826a3.812,3.812,0,0,1,1.786.362,2.756,2.756,0,0,1,1.1,1.09,7.6,7.6,0,0,1,.7,2.383h0.8l-0.262-4.675H125.432V39.11Zm17.454,0h1.057a1.089,1.089,0,0,1,.733.181,1.031,1.031,0,0,1,.19.732v8.644a2.015,2.015,0,0,1-1.98,2.134v0.841h4.964V50.8a2.477,2.477,0,0,1-1.547-.647,1.878,1.878,0,0,1-.533-1.379V39l4.237,12.641h0.8l4.249-12.532V50.051a0.78,0.78,0,0,1-.185.552,0.7,0.7,0,0,1-.538.2h-1.284v0.841h6.809V50.8h-1.063a1.149,1.149,0,0,1-.736-0.217,0.651,0.651,0,0,1-.181-0.534V39.833a0.758,0.758,0,0,1,.168-0.561,0.883,0.883,0,0,1,.613-0.163h1.2V38.269h-5.525l-3.025,9.06-3.037-9.06h-5.385V39.11Zm19.5,0.8a6.873,6.873,0,0,0-1.944,5.024,7.124,7.124,0,0,0,.886,3.6,6.633,6.633,0,0,0,5.887,3.375,6.558,6.558,0,0,0,4.878-2.006,6.876,6.876,0,0,0,1.966-5.015,7.109,7.109,0,0,0-.89-3.556,6.517,6.517,0,0,0-2.487-2.49,6.9,6.9,0,0,0-3.486-.913A6.473,6.473,0,0,0,162.386,39.914Zm6.773-.519a3.56,3.56,0,0,1,1.238,1.8,11.751,11.751,0,0,1,.416,3.61q0,3.434-.967,4.82a3.005,3.005,0,0,1-2.586,1.387,3.178,3.178,0,0,1-1.917-.6,3.665,3.665,0,0,1-1.253-1.839,11.836,11.836,0,0,1-.429-3.655,11.2,11.2,0,0,1,.466-3.614,3.945,3.945,0,0,1,1.256-1.911,3.032,3.032,0,0,1,1.868-.592A3.185,3.185,0,0,1,169.159,39.395Zm4.671-.284h0.28a1.993,1.993,0,0,1,1.022.2,1.645,1.645,0,0,1,.56.8l4.9,11.818h1.079l4.551-11.248a3.3,3.3,0,0,1,.755-1.23,1.316,1.316,0,0,1,.89-0.344h0.389V38.269H183.08V39.11h0.606a1.519,1.519,0,0,1,1.013.289,1.066,1.066,0,0,1,.334.85,3.545,3.545,0,0,1-.275,1.293l-2.75,6.917-3.355-8.1a2.313,2.313,0,0,1-.2-0.723,0.432,0.432,0,0,1,.24-0.38,2.147,2.147,0,0,1,.972-0.145h0.714V38.269H173.83V39.11Zm14.021,0h1.193a0.943,0.943,0,0,1,.638.181,0.715,0.715,0,0,1,.2.561V50.087a0.65,0.65,0,0,1-.221.534,1.231,1.231,0,0,1-.764.181h-1.049v0.841h6.854V50.8h-1.1a1.092,1.092,0,0,1-.705-0.2,0.629,0.629,0,0,1-.19-0.515V39.734a0.584,0.584,0,0,1,.181-0.466,0.871,0.871,0,0,1,.579-0.158h1.239V38.269h-6.854V39.11Zm7.257,0h1.058a1.376,1.376,0,0,1,.764.154,0.553,0.553,0,0,1,.212.479v10.29a0.751,0.751,0,0,1-.212.561,0.85,0.85,0,0,1-.619.208h-1.2v0.841h12.144l0.2-5.091h-0.814a5.293,5.293,0,0,1-1.3,3.192,3.645,3.645,0,0,1-2.7,1.058h-1.609a1.459,1.459,0,0,1-.832-0.2,0.527,0.527,0,0,1-.19-0.461V45.2h0.515a2.362,2.362,0,0,1,1.8.633,3.436,3.436,0,0,1,.678,2.179h0.814V41.787h-0.814a3.164,3.164,0,0,1-.7,1.98,2.208,2.208,0,0,1-1.668.615H200V39.743a0.587,0.587,0,0,1,.19-0.466,0.919,0.919,0,0,1,.615-0.167h1.826a3.815,3.815,0,0,1,1.786.362,2.756,2.756,0,0,1,1.1,1.09,7.625,7.625,0,0,1,.7,2.383h0.8l-0.263-4.675H195.108V39.11Z" transform="translate(-52.75 -20.5)"/>
  <path id="사각형_1_복사_2" data-name="사각형 1 복사 2" class="cls-2" d="M56.511,24.243H91.93V74.758H56.511V24.243Z" transform="translate(-52.75 -20.5)"/>
</svg>
