<svg id="그룹_2_복사" data-name="그룹 2 복사" xmlns="http://www.w3.org/2000/svg" width="154.461" height="57.812" viewBox="0 0 157.469 58.938">
  <defs>
    <style>
      .cls-1, .cls-2 {
        fill-rule: evenodd;
      }

      .cls-2 {
        fill: none;
        stroke: #ff8000;
        stroke-width: 7.5px;
      }
    </style>
  </defs>
  <path id="HODOO" class="cls-1" d="M97.682,25.786v0.162a1.551,1.551,0,0,1,.953.594,3.057,3.057,0,0,1,.377,1.8v4.147a8.349,8.349,0,0,1-.1,1.565,1.676,1.676,0,0,1-.417.8,1.655,1.655,0,0,1-.814.468v0.162l2.124-.108V25.894q-1.509-.036-2.124-0.108h0Zm12.409,9.7V35.32q-1.341-.261-1.34-2.276V28.979l0.029-.855q0.049-1.853,1.311-2.177V25.786q-1.083.108-2.154,0.108v9.481q0.267,0,2.154.108h0Zm-5.073-9.7v0.162a1.591,1.591,0,0,1,1.052.729,3.5,3.5,0,0,1,.328,1.7v1.718h-5.043v-1.5a4.294,4.294,0,0,1,.3-1.9,1.591,1.591,0,0,1,1.082-.747V25.786q-1.32.108-2.194,0.108v9.481q0.963,0.018,2.194.108V35.32a1.845,1.845,0,0,1-.983-0.567,2.645,2.645,0,0,1-.4-1.709V30.859H106.4v1.9a3.409,3.409,0,0,1-.387,1.943,1.6,1.6,0,0,1-.993.621v0.162q1.748-.1,2.184-0.108V25.894a21.788,21.788,0,0,1-2.184-.108h0Zm16.332,4.749a3.948,3.948,0,0,0-2.045-3.787,5.7,5.7,0,0,1,1.072,3.688,6.271,6.271,0,0,1-1.082,4.012,4.276,4.276,0,0,0,2.055-3.913h0Zm-12.111.027a4.126,4.126,0,0,0,2,3.832,6.647,6.647,0,0,1-1.042-3.742,6.573,6.573,0,0,1,1.092-3.913,3.987,3.987,0,0,0-2.055,3.823h0Zm6.065,4.3q-3.424,0-3.424-4.156,0-4.416,3.385-4.416,3.454,0,3.454,4.308,0,4.263-3.415,4.264h0Zm3.177-8.023a4.152,4.152,0,0,0-3.216-1.286,4.022,4.022,0,0,0-3.157,1.286,5.477,5.477,0,0,0-1.152,3.742,5.542,5.542,0,0,0,1.132,3.688,3.954,3.954,0,0,0,3.2,1.34,4.554,4.554,0,0,0,2.273-.549,3.626,3.626,0,0,0,1.538-1.673,6.349,6.349,0,0,0,.556-2.8,5.369,5.369,0,0,0-1.171-3.751h0Zm14.217,3.85a4.264,4.264,0,0,0-.575-2.213,4.757,4.757,0,0,0-1.708-1.646q1.35,1.133,1.35,3.886,0,2.815-1.648,3.958a4.347,4.347,0,0,0,2.581-3.985h0Zm-12.259-4.9v0.162a1.7,1.7,0,0,1,1.082.72,3.412,3.412,0,0,1,.307,1.664v3.715a6.318,6.318,0,0,1-.307,2.465,1.565,1.565,0,0,1-1.082.809v0.162q1.508-.108,2.213-0.108V25.894q-0.922-.018-2.213-0.108h0Zm5.578,0.648a4.06,4.06,0,0,1,3.1,1.115,4.385,4.385,0,0,1,1.052,3.13A4.23,4.23,0,0,1,129.1,33.8a3.905,3.905,0,0,1-2.889,1.052,6.438,6.438,0,0,1-1.747-.216,10.382,10.382,0,0,1-.288-2.878V29.563a12.981,12.981,0,0,1,.159-2.833,3.915,3.915,0,0,1,1.677-.3h0Zm-1.856,8.95q1.251,0.1,2.244.1A4.522,4.522,0,0,0,129.79,34.2a4.976,4.976,0,0,0,1.241-3.616,5.5,5.5,0,0,0-.517-2.536,4.108,4.108,0,0,0-1.568-1.646,4.921,4.921,0,0,0-2.541-.621q-0.309,0-1.132.045-0.546.036-1.916,0.063v9.481h0.606a1.354,1.354,0,0,1,.2.009h0Zm19.806-4.848a3.946,3.946,0,0,0-2.045-3.787,5.7,5.7,0,0,1,1.072,3.688,6.265,6.265,0,0,1-1.082,4.012,4.276,4.276,0,0,0,2.055-3.913h0Zm-12.111.027a4.127,4.127,0,0,0,2.006,3.832,6.647,6.647,0,0,1-1.043-3.742,6.573,6.573,0,0,1,1.092-3.913,3.987,3.987,0,0,0-2.055,3.823h0Zm6.066,4.3q-3.424,0-3.425-4.156,0-4.416,3.385-4.416,3.454,0,3.455,4.308,0,4.263-3.415,4.264h0Zm3.176-8.023a4.149,4.149,0,0,0-3.216-1.286,4.022,4.022,0,0,0-3.157,1.286,5.482,5.482,0,0,0-1.151,3.742,5.542,5.542,0,0,0,1.131,3.688,3.954,3.954,0,0,0,3.2,1.34,4.548,4.548,0,0,0,2.273-.549,3.623,3.623,0,0,0,1.539-1.673,6.363,6.363,0,0,0,.556-2.8,5.37,5.37,0,0,0-1.172-3.751h0Zm13.97,3.7a3.948,3.948,0,0,0-2.045-3.787,5.709,5.709,0,0,1,1.072,3.688,6.271,6.271,0,0,1-1.082,4.012,4.276,4.276,0,0,0,2.055-3.913h0Zm-12.111.027a4.126,4.126,0,0,0,2,3.832,6.647,6.647,0,0,1-1.042-3.742,6.573,6.573,0,0,1,1.092-3.913,3.987,3.987,0,0,0-2.055,3.823h0Zm6.065,4.3q-3.424,0-3.425-4.156,0-4.416,3.385-4.416,3.454,0,3.455,4.308,0,4.263-3.415,4.264h0Zm3.177-8.023a4.153,4.153,0,0,0-3.217-1.286,4.019,4.019,0,0,0-3.156,1.286,5.477,5.477,0,0,0-1.152,3.742,5.537,5.537,0,0,0,1.132,3.688,3.952,3.952,0,0,0,3.2,1.34,4.548,4.548,0,0,0,2.273-.549,3.623,3.623,0,0,0,1.539-1.673,6.349,6.349,0,0,0,.556-2.8,5.374,5.374,0,0,0-1.171-3.751h0Z" transform="translate(-51.375 -20.031)"/>
  <path id="THE_MOVIE" data-name="THE MOVIE" class="cls-1" d="M97.141,43.236h0.811q0.829-4.3,3.178-4.3a0.921,0.921,0,0,1,.621.175,0.689,0.689,0,0,1,.2.543V50.135a0.669,0.669,0,0,1-.193.5,0.719,0.719,0,0,1-.525.189H99.757v0.857h7.286V50.826H105.5a0.611,0.611,0,0,1-.456-0.193,0.682,0.682,0,0,1-.189-0.5V39.6a0.622,0.622,0,0,1,.193-0.493,0.905,0.905,0,0,1,.608-0.17,2.38,2.38,0,0,1,1.322.391,3.3,3.3,0,0,1,1.073,1.322,9.67,9.67,0,0,1,.765,2.588h0.838l-0.3-5.177H97.436Zm13.067-4.32H111a0.98,0.98,0,0,1,.682.2,0.9,0.9,0,0,1,.211.677v10.27a0.862,0.862,0,0,1-.161.585,0.654,0.654,0,0,1-.511.18h-1.013v0.857h6.309V50.826h-1.1a0.575,0.575,0,0,1-.451-0.184,0.848,0.848,0,0,1-.166-0.58v-4.9H120v4.9a0.833,0.833,0,0,1-.17.59,0.77,0.77,0,0,1-.567.175H118.3v0.857h6.319V50.826h-0.949a0.791,0.791,0,0,1-.585-0.207,0.9,0.9,0,0,1-.207-0.659V39.672a0.736,0.736,0,0,1,.2-0.571,1.023,1.023,0,0,1,.691-0.184h0.847V38.06H118.3v0.857H119.1a1.007,1.007,0,0,1,.7.193,0.91,0.91,0,0,1,.207.682v4.237H114.8V39.561a0.6,0.6,0,0,1,.194-0.47,0.855,0.855,0,0,1,.589-0.175h0.93V38.06h-6.309v0.857Zm15.1,0h1.078a1.4,1.4,0,0,1,.778.157,0.563,0.563,0,0,1,.217.488V50.043a0.764,0.764,0,0,1-.217.571,0.866,0.866,0,0,1-.631.212H125.31v0.857h12.37l0.2-5.186h-0.829a5.391,5.391,0,0,1-1.326,3.251,3.712,3.712,0,0,1-2.754,1.078h-1.64a1.488,1.488,0,0,1-.847-0.2,0.538,0.538,0,0,1-.194-0.47V45.115h0.525a2.4,2.4,0,0,1,1.833.645,3.491,3.491,0,0,1,.691,2.22h0.829V41.643h-0.829a3.224,3.224,0,0,1-.714,2.017,2.249,2.249,0,0,1-1.7.626h-0.636V39.561a0.6,0.6,0,0,1,.194-0.474,0.936,0.936,0,0,1,.626-0.17h1.861a3.887,3.887,0,0,1,1.819.368,2.808,2.808,0,0,1,1.123,1.11,7.732,7.732,0,0,1,.714,2.427h0.811l-0.267-4.762H125.31v0.857Zm17.779,0h1.078a1.107,1.107,0,0,1,.746.184,1.047,1.047,0,0,1,.193.746v8.806a2.053,2.053,0,0,1-2.017,2.174v0.857h5.057V50.826a2.518,2.518,0,0,1-1.575-.659,1.908,1.908,0,0,1-.544-1.4V38.806l4.316,12.877h0.815l4.329-12.766V50.061a0.792,0.792,0,0,1-.189.562,0.713,0.713,0,0,1-.548.2h-1.308v0.857h6.936V50.826h-1.083a1.17,1.17,0,0,1-.749-0.221,0.662,0.662,0,0,1-.185-0.544V39.653a0.777,0.777,0,0,1,.171-0.571,0.9,0.9,0,0,1,.624-0.166h1.222V38.06H154.75l-3.081,9.229-3.094-9.229h-5.486v0.857Zm19.864,0.818a7,7,0,0,0-1.98,5.118,7.268,7.268,0,0,0,.9,3.668,6.757,6.757,0,0,0,6,3.438,6.68,6.68,0,0,0,4.969-2.044,7,7,0,0,0,2-5.109,7.233,7.233,0,0,0-.907-3.622,6.635,6.635,0,0,0-2.533-2.536,7.029,7.029,0,0,0-3.551-.93A6.6,6.6,0,0,0,162.953,39.735Zm6.9-.529a3.627,3.627,0,0,1,1.262,1.832,12.006,12.006,0,0,1,.424,3.677q0,3.5-.986,4.911a3.061,3.061,0,0,1-2.634,1.413,3.241,3.241,0,0,1-1.953-.607,3.731,3.731,0,0,1-1.276-1.873,12.067,12.067,0,0,1-.437-3.723,11.437,11.437,0,0,1,.474-3.682,4.02,4.02,0,0,1,1.28-1.947,3.09,3.09,0,0,1,1.9-.6A3.243,3.243,0,0,1,169.852,39.206Zm4.758-.29H174.9a2.03,2.03,0,0,1,1.041.2,1.681,1.681,0,0,1,.571.82l4.986,12.039h1.1l4.635-11.458A3.379,3.379,0,0,1,188,39.266a1.343,1.343,0,0,1,.908-0.35h0.4V38.06h-5.269v0.857h0.617a1.544,1.544,0,0,1,1.032.295,1.083,1.083,0,0,1,.341.866,3.6,3.6,0,0,1-.281,1.317l-2.8,7.046-3.419-8.253a2.364,2.364,0,0,1-.206-0.737,0.44,0.44,0,0,1,.244-0.387,2.187,2.187,0,0,1,.99-0.147h0.728V38.06H174.61v0.857Zm14.283,0h1.216a0.959,0.959,0,0,1,.649.184,0.726,0.726,0,0,1,.207.571V50.1a0.661,0.661,0,0,1-.225.543,1.255,1.255,0,0,1-.779.184h-1.068v0.857h6.982V50.826h-1.124a1.115,1.115,0,0,1-.719-0.2,0.638,0.638,0,0,1-.193-0.525V39.552a0.6,0.6,0,0,1,.184-0.474,0.886,0.886,0,0,1,.59-0.161h1.262V38.06h-6.982v0.857Zm7.392,0h1.078a1.4,1.4,0,0,1,.778.157,0.561,0.561,0,0,1,.217.488V50.043a0.76,0.76,0,0,1-.217.571,0.864,0.864,0,0,1-.631.212h-1.225v0.857h12.371l0.2-5.186h-0.829a5.391,5.391,0,0,1-1.326,3.251,3.711,3.711,0,0,1-2.754,1.078h-1.64a1.488,1.488,0,0,1-.847-0.2,0.538,0.538,0,0,1-.194-0.47V45.115h0.526a2.4,2.4,0,0,1,1.832.645,3.485,3.485,0,0,1,.691,2.22h0.829V41.643h-0.829a3.212,3.212,0,0,1-.714,2.017,2.247,2.247,0,0,1-1.7.626h-0.636V39.561a0.6,0.6,0,0,1,.194-0.474,0.937,0.937,0,0,1,.626-0.17h1.861a3.887,3.887,0,0,1,1.819.368,2.81,2.81,0,0,1,1.124,1.11,7.787,7.787,0,0,1,.714,2.427h0.81l-0.267-4.762H196.285v0.857Z" transform="translate(-51.375 -20.031)"/>
  <path id="사각형_1_복사_2" data-name="사각형 1 복사 2" class="cls-2" d="M55.116,23.771H91.184V75.229H55.116V23.771Z" transform="translate(-51.375 -20.031)"/>
</svg>
