<svg xmlns="http://www.w3.org/2000/svg" width="183.906" height="37.219" viewBox="0 0 183.906 37.219">
  <defs>
    <style>
      .cls-1 {
        fill: #fff;
        fill-rule: evenodd;
      }
    </style>
  </defs>
  <path id="HoDoO_복사" data-name="HoDoO 복사" class="cls-1" d="M76.325,47a13.367,13.367,0,0,0,4.4-.428q1.394-.523,1.394-2.665V18.154a2.929,2.929,0,0,0-1.18-2.665q-1.287-.9-4.612-0.9V12.966H95.308v1.618a15.824,15.824,0,0,0-5.148.619,2.339,2.339,0,0,0-1.716,2.285V29.529H107.48V17.82a2.655,2.655,0,0,0-1.662-2.523,10.828,10.828,0,0,0-4.4-.714V12.966h18.286v1.618a10.769,10.769,0,0,0-4.022.619,2.354,2.354,0,0,0-1.77,2.189V43.9a2.541,2.541,0,0,0,1.716,2.665A13.012,13.012,0,0,0,119.76,47V48.52h-18.5V47a15.531,15.531,0,0,0,4.183-.381,2.351,2.351,0,0,0,2.037-2.332V31.147H88.444v12.47q0,2.333,1.555,2.951A19.128,19.128,0,0,0,95.308,47V48.52H76.325V47Zm52.852-18.42a15.132,15.132,0,0,0-1.931,7.806,15.685,15.685,0,0,0,1.931,8Q131.375,48,134.968,48q3.27,0,5.416-3.617a15.517,15.517,0,0,0,1.984-8,15.137,15.137,0,0,0-1.984-7.806q-2.145-3.665-5.416-3.665-3.592,0-5.791,3.665h0Zm16.087-1.428q3.324,3.38,3.325,9.329,0,5.9-3.325,9.281-3.538,3.666-10.4,3.665-6.918,0-10.51-3.665-3.218-3.379-3.218-9.281,0-5.949,3.218-9.329,3.591-3.713,10.51-3.713,6.864,0,10.4,3.713h0ZM148.085,47a14.613,14.613,0,0,0,4.4-.428,2.069,2.069,0,0,0,1.394-2.142V16.821A1.757,1.757,0,0,0,152.8,15.06a13.173,13.173,0,0,0-4.719-.571V12.966h20.806a20.864,20.864,0,0,1,13.191,4.379,15.757,15.757,0,0,1,6.274,12.994q0,8.853-5.63,13.66-5.2,4.522-13.782,4.522H148.085V47Zm13.62-.714a6.442,6.442,0,0,0,3.164.714h3.271q6.327,0,9.384-4.379,3-4.284,3-13.041,0-7.615-3.861-11.423-3.538-3.57-9.92-3.57h-1.341a10.43,10.43,0,0,0-3.968.524,2.075,2.075,0,0,0-1.18,2.047V44.141a2.415,2.415,0,0,0,1.448,2.142h0Zm36.55-17.706a15.142,15.142,0,0,0-1.93,7.806,15.7,15.7,0,0,0,1.93,8Q200.454,48,204.047,48q3.27,0,5.416-3.617a15.517,15.517,0,0,0,1.984-8,15.137,15.137,0,0,0-1.984-7.806q-2.145-3.665-5.416-3.665-3.594,0-5.792,3.665h0Zm16.088-1.428q3.324,3.38,3.324,9.329,0,5.9-3.324,9.281-3.54,3.666-10.4,3.665-6.918,0-10.511-3.665-3.218-3.379-3.217-9.281,0-5.949,3.217-9.329,3.593-3.713,10.511-3.713,6.862,0,10.4,3.713h0Zm15.208-8a20.886,20.886,0,0,0-3,11.614q0,7.045,3,11.613a12.147,12.147,0,0,0,20.109,0q3-4.569,3-11.613t-3-11.614a12.209,12.209,0,0,0-20.109,0h0Zm25.471-1.428a17.565,17.565,0,0,1,5.2,13.042q0,8.139-5.2,13.184-5.469,5.379-15.283,5.378-9.867,0-15.444-5.378-5.256-5.044-5.255-13.184A17.467,17.467,0,0,1,224.3,17.725q5.684-5.521,15.444-5.521,9.705,0,15.283,5.521h0Z" transform="translate(-76.313 -12.219)"/>
</svg>
